<svg width="40" height="40" viewBox="0 0 40 40" fill="none" xmlns="http://www.w3.org/2000/svg">
<path d="M40 20C40 25.3043 37.8929 30.3914 34.1421 34.1421C30.3914 37.8929 25.3043 40 20 40C14.6957 40 9.60859 37.8929 5.85787 34.1421C2.10714 30.3914 8.00932e-07 25.3043 0 20L20 20H40Z" fill="#FCC231"/>
<path d="M30 20C30 22.6522 28.9464 25.1957 27.0711 27.0711C25.1957 28.9464 22.6522 30 20 30C17.3478 30 14.8043 28.9464 12.9289 27.0711C11.0536 25.1957 10 22.6522 10 20L20 20H30Z" fill="#FF8145"/>
<path d="M10 20C10 17.3478 11.0536 14.8043 12.9289 12.9289C14.8043 11.0536 17.3478 10 20 10C22.6522 10 25.1957 11.0536 27.0711 12.9289C28.9464 14.8043 30 17.3478 30 20L20 20L10 20Z" fill="#C282D1"/>
</svg>
